name rise30.6535peak61.5555fall82.9339.mot
datacolumns 19
datarows 36
range 20.64992100000000 20.70824900000000
endheader
time	ground_force1_vx	ground_force1_vy	ground_force1_vz	ground_force1_px	ground_force1_py	ground_force1_pz	ground_force2_vx	ground_force2_vy	ground_force2_vz	ground_force2_px	ground_force2_py	ground_force2_pz	ground_torque1_x	ground_torque1_y	ground_torque1_z	ground_torque2_x	ground_torque2_y	ground_torque2_z	
20.64992100000000	54.09328300000000	724.32923400000004	57.37054300000000	0.35090400000000	0.00000000000000	0.10659900000000	0.00000000000000	0.00000000000000	0.00000000000000	0.00000000000000	0.00000000000000	0.00000000000000	0.00000000000000	27.59394300000000	0.00000000000000	0.00000000000000	0.00000000000000	0.00000000000000	
20.65159400000000	53.46199700000000	728.24498600000004	57.61453000000000	0.34988000000000	0.00000000000000	0.10657500000000	0.00000000000000	0.00000000000000	0.00000000000000	0.00000000000000	0.00000000000000	0.00000000000000	0.00000000000000	27.75527200000000	0.00000000000000	0.00000000000000	0.00000000000000	0.00000000000000	
20.65325500000000	52.83604700000000	732.07298900000001	57.85686400000000	0.34888900000000	0.00000000000000	0.10655100000000	0.00000000000000	0.00000000000000	0.00000000000000	0.00000000000000	0.00000000000000	0.00000000000000	0.00000000000000	27.91684300000000	0.00000000000000	0.00000000000000	0.00000000000000	0.00000000000000	
20.65491700000000	52.21579400000000	735.80968499999994	58.09731100000000	0.34793000000000	0.00000000000000	0.10652500000000	0.00000000000000	0.00000000000000	0.00000000000000	0.00000000000000	0.00000000000000	0.00000000000000	0.00000000000000	28.07848000000000	0.00000000000000	0.00000000000000	0.00000000000000	0.00000000000000	
20.65658100000000	51.60152600000000	739.45156399999996	58.33557600000000	0.34700300000000	0.00000000000000	0.10649900000000	0.00000000000000	0.00000000000000	0.00000000000000	0.00000000000000	0.00000000000000	0.00000000000000	0.00000000000000	28.23996900000000	0.00000000000000	0.00000000000000	0.00000000000000	0.00000000000000	
20.65825500000000	50.99346700000000	742.99517900000001	58.57130600000000	0.34610600000000	0.00000000000000	0.10647100000000	0.00000000000000	0.00000000000000	0.00000000000000	0.00000000000000	0.00000000000000	0.00000000000000	0.00000000000000	28.40105800000000	0.00000000000000	0.00000000000000	0.00000000000000	0.00000000000000	
20.65992100000000	50.39177800000000	746.43716500000005	58.80409400000000	0.34523800000000	0.00000000000000	0.10644300000000	0.00000000000000	0.00000000000000	0.00000000000000	0.00000000000000	0.00000000000000	0.00000000000000	0.00000000000000	28.56145700000000	0.00000000000000	0.00000000000000	0.00000000000000	0.00000000000000	
20.66158100000000	49.79656000000000	749.77425700000003	59.03348400000000	0.34439800000000	0.00000000000000	0.10641400000000	0.00000000000000	0.00000000000000	0.00000000000000	0.00000000000000	0.00000000000000	0.00000000000000	0.00000000000000	28.72084200000000	0.00000000000000	0.00000000000000	0.00000000000000	0.00000000000000	
20.66325000000000	49.20785900000000	753.00330699999995	59.25897900000000	0.34358500000000	0.00000000000000	0.10638400000000	0.00000000000000	0.00000000000000	0.00000000000000	0.00000000000000	0.00000000000000	0.00000000000000	0.00000000000000	28.87886100000000	0.00000000000000	0.00000000000000	0.00000000000000	0.00000000000000	
20.66491400000000	48.62566800000000	756.12129900000002	59.48003800000000	0.34279800000000	0.00000000000000	0.10635300000000	0.00000000000000	0.00000000000000	0.00000000000000	0.00000000000000	0.00000000000000	0.00000000000000	0.00000000000000	29.03513200000000	0.00000000000000	0.00000000000000	0.00000000000000	0.00000000000000	
20.66658800000000	48.04993700000000	759.12536399999999	59.69608900000000	0.34203400000000	0.00000000000000	0.10632100000000	0.00000000000000	0.00000000000000	0.00000000000000	0.00000000000000	0.00000000000000	0.00000000000000	0.00000000000000	29.18925000000000	0.00000000000000	0.00000000000000	0.00000000000000	0.00000000000000	
20.66824600000000	47.48056900000000	762.01279699999998	59.90652900000000	0.34129200000000	0.00000000000000	0.10628900000000	0.00000000000000	0.00000000000000	0.00000000000000	0.00000000000000	0.00000000000000	0.00000000000000	0.00000000000000	29.34078800000000	0.00000000000000	0.00000000000000	0.00000000000000	0.00000000000000	
20.66992400000000	46.91743300000000	764.78107000000000	60.11073400000000	0.34057100000000	0.00000000000000	0.10625500000000	0.00000000000000	0.00000000000000	0.00000000000000	0.00000000000000	0.00000000000000	0.00000000000000	0.00000000000000	29.48929900000000	0.00000000000000	0.00000000000000	0.00000000000000	0.00000000000000	
20.67158100000000	46.36036000000000	767.42784200000006	60.30805900000000	0.33986800000000	0.00000000000000	0.10622100000000	0.00000000000000	0.00000000000000	0.00000000000000	0.00000000000000	0.00000000000000	0.00000000000000	0.00000000000000	29.63432400000000	0.00000000000000	0.00000000000000	0.00000000000000	0.00000000000000	
20.67324700000000	45.80915500000000	769.95097399999997	60.49784900000000	0.33918200000000	0.00000000000000	0.10618600000000	0.00000000000000	0.00000000000000	0.00000000000000	0.00000000000000	0.00000000000000	0.00000000000000	0.00000000000000	29.77539100000000	0.00000000000000	0.00000000000000	0.00000000000000	0.00000000000000	
20.67492100000000	45.26359700000000	772.34853999999996	60.67944100000000	0.33851100000000	0.00000000000000	0.10615100000000	0.00000000000000	0.00000000000000	0.00000000000000	0.00000000000000	0.00000000000000	0.00000000000000	0.00000000000000	29.91201900000000	0.00000000000000	0.00000000000000	0.00000000000000	0.00000000000000	
20.67658000000000	44.72344500000000	774.61883399999999	60.85217000000000	0.33785400000000	0.00000000000000	0.10611400000000	0.00000000000000	0.00000000000000	0.00000000000000	0.00000000000000	0.00000000000000	0.00000000000000	0.00000000000000	30.04372300000000	0.00000000000000	0.00000000000000	0.00000000000000	0.00000000000000	
20.67824600000000	44.18844200000000	776.76037799999995	61.01537700000000	0.33720700000000	0.00000000000000	0.10607700000000	0.00000000000000	0.00000000000000	0.00000000000000	0.00000000000000	0.00000000000000	0.00000000000000	0.00000000000000	30.17001700000000	0.00000000000000	0.00000000000000	0.00000000000000	0.00000000000000	
20.67992000000000	43.65832000000000	778.77193299999999	61.16840800000000	0.33657000000000	0.00000000000000	0.10603900000000	0.00000000000000	0.00000000000000	0.00000000000000	0.00000000000000	0.00000000000000	0.00000000000000	0.00000000000000	30.29041500000000	0.00000000000000	0.00000000000000	0.00000000000000	0.00000000000000	
20.68159900000000	43.13280200000000	780.65250300000002	61.31062800000000	0.33593900000000	0.00000000000000	0.10600100000000	0.00000000000000	0.00000000000000	0.00000000000000	0.00000000000000	0.00000000000000	0.00000000000000	0.00000000000000	30.40443900000000	0.00000000000000	0.00000000000000	0.00000000000000	0.00000000000000	
20.68325100000000	42.61161000000000	782.40133800000001	61.44141900000000	0.33531400000000	0.00000000000000	0.10596200000000	0.00000000000000	0.00000000000000	0.00000000000000	0.00000000000000	0.00000000000000	0.00000000000000	0.00000000000000	30.51161700000000	0.00000000000000	0.00000000000000	0.00000000000000	0.00000000000000	
20.68491600000000	42.09446300000000	784.01793999999995	61.56018700000000	0.33469200000000	0.00000000000000	0.10592200000000	0.00000000000000	0.00000000000000	0.00000000000000	0.00000000000000	0.00000000000000	0.00000000000000	0.00000000000000	30.61149000000000	0.00000000000000	0.00000000000000	0.00000000000000	0.00000000000000	
20.68659200000000	41.58108800000000	785.50206300000002	61.66636600000000	0.33407200000000	0.00000000000000	0.10588100000000	0.00000000000000	0.00000000000000	0.00000000000000	0.00000000000000	0.00000000000000	0.00000000000000	0.00000000000000	30.70361300000000	0.00000000000000	0.00000000000000	0.00000000000000	0.00000000000000	
20.68824900000000	41.07121600000000	786.85371899999996	61.75942300000000	0.33345000000000	0.00000000000000	0.10584000000000	0.00000000000000	0.00000000000000	0.00000000000000	0.00000000000000	0.00000000000000	0.00000000000000	0.00000000000000	30.78756000000000	0.00000000000000	0.00000000000000	0.00000000000000	0.00000000000000	
20.68991900000000	40.56459100000000	788.07316900000001	61.83886300000000	0.33282500000000	0.00000000000000	0.10579900000000	0.00000000000000	0.00000000000000	0.00000000000000	0.00000000000000	0.00000000000000	0.00000000000000	0.00000000000000	30.86292200000000	0.00000000000000	0.00000000000000	0.00000000000000	0.00000000000000	
20.69159000000000	40.06097000000000	789.16093300000000	61.90422800000000	0.33219600000000	0.00000000000000	0.10575600000000	0.00000000000000	0.00000000000000	0.00000000000000	0.00000000000000	0.00000000000000	0.00000000000000	0.00000000000000	30.92931700000000	0.00000000000000	0.00000000000000	0.00000000000000	0.00000000000000	
20.69324700000000	39.56012600000000	790.11777600000005	61.95510600000000	0.33155900000000	0.00000000000000	0.10571400000000	0.00000000000000	0.00000000000000	0.00000000000000	0.00000000000000	0.00000000000000	0.00000000000000	0.00000000000000	30.98638600000000	0.00000000000000	0.00000000000000	0.00000000000000	0.00000000000000	
20.69492000000000	39.06185100000000	790.94471299999998	61.99112800000000	0.33091400000000	0.00000000000000	0.10567000000000	0.00000000000000	0.00000000000000	0.00000000000000	0.00000000000000	0.00000000000000	0.00000000000000	0.00000000000000	31.03379900000000	0.00000000000000	0.00000000000000	0.00000000000000	0.00000000000000	
20.69659700000000	38.56595800000000	791.64300100000003	62.01197700000000	0.33025900000000	0.00000000000000	0.10562600000000	0.00000000000000	0.00000000000000	0.00000000000000	0.00000000000000	0.00000000000000	0.00000000000000	0.00000000000000	31.07125400000000	0.00000000000000	0.00000000000000	0.00000000000000	0.00000000000000	
20.69825000000000	38.07228300000000	792.21413299999995	62.01738500000000	0.32959100000000	0.00000000000000	0.10558200000000	0.00000000000000	0.00000000000000	0.00000000000000	0.00000000000000	0.00000000000000	0.00000000000000	0.00000000000000	31.09848300000000	0.00000000000000	0.00000000000000	0.00000000000000	0.00000000000000	
20.69991200000000	37.58068700000000	792.65983200000005	62.00713600000000	0.32891000000000	0.00000000000000	0.10553700000000	0.00000000000000	0.00000000000000	0.00000000000000	0.00000000000000	0.00000000000000	0.00000000000000	0.00000000000000	31.11525000000000	0.00000000000000	0.00000000000000	0.00000000000000	0.00000000000000	
20.70159400000000	37.09105800000000	792.98204199999998	61.98106900000000	0.32821300000000	0.00000000000000	0.10549200000000	0.00000000000000	0.00000000000000	0.00000000000000	0.00000000000000	0.00000000000000	0.00000000000000	0.00000000000000	31.12135200000000	0.00000000000000	0.00000000000000	0.00000000000000	0.00000000000000	
20.70325200000000	36.60330900000000	793.18292399999996	61.93907500000000	0.32749800000000	0.00000000000000	0.10544700000000	0.00000000000000	0.00000000000000	0.00000000000000	0.00000000000000	0.00000000000000	0.00000000000000	0.00000000000000	31.11662500000000	0.00000000000000	0.00000000000000	0.00000000000000	0.00000000000000	
20.70491700000000	36.11738200000000	793.26484000000005	61.88110400000000	0.32676500000000	0.00000000000000	0.10540100000000	0.00000000000000	0.00000000000000	0.00000000000000	0.00000000000000	0.00000000000000	0.00000000000000	0.00000000000000	31.10094000000000	0.00000000000000	0.00000000000000	0.00000000000000	0.00000000000000	
20.70659100000000	35.63324800000000	793.23035000000004	61.80715800000000	0.32601200000000	0.00000000000000	0.10535400000000	0.00000000000000	0.00000000000000	0.00000000000000	0.00000000000000	0.00000000000000	0.00000000000000	0.00000000000000	31.07420400000000	0.00000000000000	0.00000000000000	0.00000000000000	0.00000000000000	
20.70824900000000	35.15090700000000	793.08219499999996	61.71729700000000	0.32523800000000	0.00000000000000	0.10530800000000	0.00000000000000	0.00000000000000	0.00000000000000	0.00000000000000	0.00000000000000	0.00000000000000	0.00000000000000	31.03636200000000	0.00000000000000	0.00000000000000	0.00000000000000	0.00000000000000	
